<svg width="28" height="21" viewBox="0 0 28 21" fill="none" xmlns="http://www.w3.org/2000/svg">
<path fill-rule="evenodd" clip-rule="evenodd" d="M7.96132 3.43614C7.89118 3.43614 7.82103 3.41004 7.76617 3.35782C7.65304 3.2497 7.64879 3.07006 7.75655 2.95683C9.39299 1.23285 11.6005 0.283875 13.9723 0.283875C16.2652 0.283875 18.4206 1.1795 20.0418 2.80614C20.1523 2.9171 20.1523 3.09674 20.0418 3.20742C19.9315 3.31837 19.7524 3.31837 19.6418 3.20742C18.1276 1.68804 16.1141 0.851442 13.9723 0.851442C11.7569 0.851442 9.69477 1.73827 8.16609 3.34789C8.11037 3.40663 8.03598 3.43614 7.96132 3.43614ZM5.94356 2.9725C5.87031 2.9725 5.78688 2.9935 5.70712 3.06104C4.50341 4.0801 3.24285 6.92785 2.02386 9.68167L2.02384 9.68172C1.82898 10.1221 1.63524 10.5597 1.44348 10.9857C0.548047 12.975 0.339602 14.485 0.805986 15.602C1.3592 16.9264 2.80926 17.5559 4.24716 18.0871C4.7455 18.271 5.28146 18.2015 5.71815 17.8958C6.15795 17.5882 6.41023 17.1032 6.41023 16.5657V3.44699C6.41023 3.22535 6.25778 3.07523 6.12712 3.0145C6.09035 2.99747 6.02304 2.9725 5.94356 2.9725ZM4.80655 18.7563C4.55399 18.7563 4.29944 18.7111 4.05168 18.6198C2.56514 18.0704 0.9253 17.3561 0.284412 15.8211C-0.246174 14.5512 -0.03575 12.893 0.927846 10.7524C1.11904 10.327 1.31221 9.89086 1.5068 9.45128C2.75181 6.6387 4.03924 3.73077 5.34223 2.62713C5.62619 2.38705 6.01791 2.33796 6.3655 2.49972C6.73629 2.67254 6.97585 3.0443 6.97585 3.44699V16.5657C6.97585 17.2809 6.62655 17.952 6.04166 18.3615C5.66833 18.6226 5.24098 18.7563 4.80655 18.7563ZM21.8597 2.9725C21.7802 2.9725 21.7129 2.99747 21.6761 3.0145C21.5454 3.07523 21.393 3.22535 21.393 3.44699V16.5657C21.393 17.1032 21.6453 17.5882 22.0851 17.8958C22.5218 18.2015 23.058 18.271 23.5561 18.0871C24.994 17.5559 26.444 16.9264 26.9972 15.602C27.4636 14.485 27.2552 12.975 26.36 10.9857C26.168 10.5597 25.9742 10.1221 25.7794 9.68172L25.7794 9.68166C24.5604 6.92784 23.2998 4.0801 22.0961 3.06104C22.0163 2.9935 21.9329 2.9725 21.8597 2.9725ZM22.9967 18.7563C22.5622 18.7563 22.1352 18.6226 21.7616 18.3615C21.1767 17.952 20.8274 17.2809 20.8274 16.5657V3.44699C20.8274 3.0443 21.0669 2.67254 21.4377 2.49972C21.7847 2.33796 22.1768 2.38705 22.461 2.62713C23.764 3.73077 25.0514 6.6387 26.2964 9.45128C26.491 9.89086 26.6842 10.327 26.8754 10.7524C27.839 12.893 28.0494 14.5512 27.5188 15.8211C26.8779 17.3561 25.2381 18.0704 23.7515 18.6198C23.5038 18.7111 23.249 18.7563 22.9967 18.7563ZM13.9017 16.1294C14.9875 16.1294 15.8676 15.5406 15.8676 14.8144C15.8676 14.0879 14.9875 13.499 13.9017 13.499C12.8156 13.499 11.9357 14.0879 11.9357 14.8144C11.9357 15.5406 12.8156 16.1294 13.9017 16.1294ZM10.4065 10.4307C10.4065 10.7937 10.1132 11.0879 9.7512 11.0879C9.38918 11.0879 9.09589 10.7937 9.09589 10.4307C9.09589 10.0675 9.38918 9.77318 9.7512 9.77318C10.1132 9.77318 10.4065 10.0675 10.4065 10.4307ZM18.0521 11.0879C18.4138 11.0879 18.7074 10.7937 18.7074 10.4307C18.7074 10.0675 18.4138 9.77318 18.0521 9.77318C17.6901 9.77318 17.3968 10.0675 17.3968 10.4307C17.3968 10.7937 17.6901 11.0879 18.0521 11.0879ZM7.76142 18.4478C9.3826 20.0747 11.5383 20.9706 13.8309 20.9706C16.2027 20.9706 18.4102 20.0213 20.0466 18.2976C20.1544 18.1844 20.1502 18.0048 20.037 17.8967C19.9239 17.7885 19.7451 17.7925 19.6371 17.9063C18.1084 19.5162 16.0463 20.403 13.8309 20.403C11.6893 20.403 9.67589 19.5662 8.16134 18.0465C8.05076 17.9358 7.87173 17.9358 7.76142 18.0465C7.65084 18.1575 7.65084 18.3371 7.76142 18.4478Z" fill="#6E6E6E"/>
</svg>
